<svg xmlns="http://www.w3.org/2000/svg" xmlns:xlink="http://www.w3.org/1999/xlink" width="16" height="16" preserveAspectRatio="xMidYMid meet" viewBox="0 0 16 16" style="-ms-transform: rotate(360deg); -webkit-transform: rotate(360deg); transform: rotate(360deg);"><g fill="white"><path fill-rule="evenodd" d="M14 5H2v9a1 1 0 0 0 1 1h10a1 1 0 0 0 1-1V5zM1 4v10a2 2 0 0 0 2 2h10a2 2 0 0 0 2-2V4H1z"/><path d="M8 1.5A2.5 2.5 0 0 0 5.5 4h-1a3.5 3.5 0 1 1 7 0h-1A2.5 2.5 0 0 0 8 1.5z"/></g><rect x="0" y="0" width="16" height="16" fill="rgba(0, 0, 0, 0)" /></svg>